# xmcd
#
# Track frame offsets: 
#        150
#        15300
#        29122
#        46087
#        59275
#        72550
#        83362
#        97825
#        116750
#        125642
#        138525
#        158160
#        169527
#        186477
#        199170
#        207942
#        219415
#        231137
#        242825
#        249435
#        261692
#
# Disc length: 3711 seconds
#
# Revision: 1
# Processed by: cddbd v1.5.1PL2 Copyright (c) Steve Scherf et al.
# Submitted via: ExactAudioCopy v0.95a5
#
DISCID=300e7d15
DTITLE=Various Artist - Sentimental Souvenirs
DYEAR=1900
DGENRE=Blues
TTITLE0=Ed Ames - Some Enchanted Evening 
TTITLE1=The Romantic Voices - The Way You Look Tonight
TTITLE2=Vic Damone - Night And Day
TTITLE3=The Romantic Voices and His Orchestra - I'll See You In My Dre
TTITLE3=am
TTITLE4=Norman Percival - Twilight Time
TTITLE5=Engelbert Humperdinck - Moonlight Becomes You
TTITLE6=Rosalind Page - Twilight
TTITLE7=Ozzie and Harriet Nelson and the  Ozzie and His Orchestra - Tw
TTITLE7=o Sleepy People
TTITLE8=Freddy Martin and His Orchestra - Dancing In The Dark
TTITLE9=Daniel Michael and His Orchestra - In The Still Of The Night
TTITLE10=The Stardust Voices - The Sweetheart of Sigma Chi
TTITLE11=Paul Weston and His Orchestra - The Most Beautiful Girl In Th
TTITLE11=e World
TTITLE12=Engelbert Humperdinck - The Very Thought Of You
TTITLE13=Les Brown - I've Got My Love To Keep Me Warm
TTITLE14=Eddy Howard - You Must Have Been A Beautiful Baby
TTITLE15=Henry Mancini and His Orchestra - Tenderly
TTITLE16=Ed Ames - For Me and My Gal
TTITLE17=Jan Garber and His Orchestra - Because Of You
TTITLE18=Rosemary Clooney - This Can't Be Love
TTITLE19=Carmen Carvallaro - I've Got You Under My Skin
TTITLE20=Bea Wain with Larry Clinton and His Orchestra - You Go To My 
TTITLE20=Head
EXTD=
EXTT0=
EXTT1=
EXTT2=
EXTT3=
EXTT4=
EXTT5=
EXTT6=
EXTT7=
EXTT8=
EXTT9=
EXTT10=
EXTT11=
EXTT12=
EXTT13=
EXTT14=
EXTT15=
EXTT16=
EXTT17=
EXTT18=
EXTT19=
EXTT20=
PLAYORDER=
